<svg version="1.2" baseProfile="tiny-ps"
xmlns="http://www.w3.org/2000/svg"
viewBox="0 0 100 100">

  <!-- Background -->
  <rect x="0" y="0" width="100" height="100" fill="#ffffff"/>

  <!-- Hexagon -->
  <polygon points="50,6 94,28 94,72 50,94 6,72 6,28"
    fill="none"
    stroke="#16a34a"
    stroke-width="6"/>

  <!-- "Ab" converted to vector shapes -->
  <!-- A -->
  <polygon points="32,68 40,36 48,68 43,68 41,60 39,60 37,68"
    fill="#111111"/>
  
  <!-- b -->
  <path d="M52 36 L52 68 L58 68 Q66 68 66 60 Q66 54 60 52 Q66 50 66 44 Q66 36 58 36 Z
           M58 40 Q62 40 62 44 Q62 48 58 48 L56 48 L56 40 Z
           M58 52 Q62 52 62 60 Q62 64 58 64 L56 64 L56 52 Z"
    fill="#111111"/>

</svg>